# xmcd
#
# Track frame offsets: 
#        150
#        22125
#        33617
#        55285
#        73717
#        92167
#        110257
#        123530
#        150385
#        163965
#        180310
#        215625
#        230305
#        251410
#        270317
#
# Disc length: 3822 seconds
#
# Revision: 4
# Processed by: cddbd v1.5.1PL2 Copyright (c) Steve Scherf et al.
# Submitted via: ExactAudioCopy v0.95a5
#
DISCID=cd0eec0f
DTITLE=Odetta - Blues Everywhere I Go
DYEAR=1999
DGENRE=Folk Blues
TTITLE0=Blues Everywhere I Go
TTITLE1=Please Send Me Someone to Love
TTITLE2=Dink's Blues
TTITLE3=Unemployment Blues
TTITLE4=T.B. Blues
TTITLE5=Trouble Everywhere - I've Been Living with the Blues
TTITLE6=Can't Afford to Lose My Man
TTITLE7=Homeless Blues
TTITLE8=Oh Papa
TTITLE9=Look the World Over
TTITLE10=Careless Love - St. Louis Blues
TTITLE11=Hear Me Talking to You
TTITLE12=Rich Man Blues
TTITLE13=W.P.A. Blues
TTITLE14=You Gotta Know How
EXTD=Recorded 1999-03-22/06-21.\nCD: MC Records MC0038 (1999-09-28), U
EXTD=PC 607735003827.
EXTT0=
EXTT1=
EXTT2=
EXTT3=
EXTT4=
EXTT5=
EXTT6=
EXTT7=
EXTT8=
EXTT9=
EXTT10=
EXTT11=
EXTT12=
EXTT13=
EXTT14=
PLAYORDER=
